PathFileType	4	(X/Y/Z)	RBDS018\RBDS018runT35.trc
DataRate	CameraRate	NumFrames	NumMarkers	Units	OrigDataRate	OrigDataStartFrame	OrigNumFrames
150.000000	150.000000	4	33	mm	150.000000	2250	4500
Frame#	Time	L.ASIS			L.Heel.Bottom			L.Heel.Lateral			L.Heel.Top			L.Iliac.Crest			L.MT1			L.MT5			L.PSIS			L.Shank.Bottom.Lateral			L.Shank.Bottom.Medial			L.Shank.Top.Lateral			L.Shank.Top.Medial			L.Thigh.Bottom.Lateral			L.Thigh.Bottom.Medial			L.Thigh.Top.Lateral			L.Thigh.Top.Medial			R.ASIS			R.ASY			R.Heel.Bottom			R.Heel.Lateral			R.Heel.Top			R.Iliac.Crest			R.MT1			R.MT5			R.PSIS			R.Shank.Bottom.Lateral			R.Shank.Bottom.Medial			R.Shank.Top.Lateral			R.Shank.Top.Medial			R.Thigh.Bottom.Lateral			R.Thigh.Bottom.Medial			R.Thigh.Top.Lateral			R.Thigh.Top.Medial			
		X1	Y1	Z1	X2	Y2	Z2	X3	Y3	Z3	X4	Y4	Z4	X5	Y5	Z5	X6	Y6	Z6	X7	Y7	Z7	X8	Y8	Z8	X9	Y9	Z9	X10	Y10	Z10	X11	Y11	Z11	X12	Y12	Z12	X13	Y13	Z13	X14	Y14	Z14	X15	Y15	Z15	X16	Y16	Z16	X17	Y17	Z17	X18	Y18	Z18	X19	Y19	Z19	X20	Y20	Z20	X21	Y21	Z21	X22	Y22	Z22	X23	Y23	Z23	X24	Y24	Z24	X25	Y25	Z25	X26	Y26	Z26	X27	Y27	Z27	X28	Y28	Z28	X29	Y29	Z29	X30	Y30	Z30	X31	Y31	Z31	X32	Y32	Z32	X33	Y33	Z33	

2251	15	2156.503146339187	1076.191370523099	949.632712128	2215.897937468629	123.8813694235444	1024.101084777089	2244.149639534758	124.844137938806	974.4561107126988	2230.073390373578	171.05436892589	1013.775168187412	2082.153372599692	1163.842866905257	910.7294860156779	2440.681107691052	117.7668391120611	1050.264636494433	2406.846315553055	104.8949243087128	942.590773331625	1991.120078161063	1115.565468302067	1019.902785410418	2273.750180241972	277.397965316991	945.3172077914046	2245.279706469185	281.7379768132941	987.5792552365431	2266.375259269846	356.0029722981845	926.9380684735904	2238.247591527052	364.7534387388282	971.3158050655729	2270.782172717326	716.7827868332655	891.1408833846084	2215.199376393134	684.4936205053781	925.5272208491646	2209.302726717124	805.8811649574242	874.5065798589122	2155.529236880806	774.799901322808	905.8585646836375	2180.999467328259	1057.089653523826	1171.322173762114	1626.093170947487	163.7549994781494	1091.058582675395	1497.82995508137	318.3665298269264	1060.427021226634	1512.339003857484	304.4704355644504	1101.440468857707	1546.913236932239	328.3577728826398	1071.362959595286	2143.917318818316	1142.613053146335	1203.578036737285	1607.816907545351	121.9327318242745	1036.462251770953	1572.43200276172	140.5863676786587	1140.614615266383	2006.039890614372	1115.114643588574	1131.951622665391	1641.202746363077	355.1013097854411	1154.045408249902	1616.908559957687	386.3333363271039	1115.150219378138	1686.5021923492	419.4229297468125	1175.487811100233	1662.099156551149	448.7064511010061	1137.224537845823	1939.007562875772	692.5921578096261	1218.203483968545	1886.327488703886	723.614512296372	1179.247229559131	1980.053733585007	792.776488329119	1241.128767922197	1929.604496335728	821.0007123053941	1204.638630301554	
2252	15.00666666666667	2156.008473682718	1076.465203488482	949.259753629142	2233.824471046834	115.5031217650869	1024.439725148589	2262.414667337513	116.4894759469068	974.9567297299093	2246.084655185904	162.9756983861633	1013.111943496028	2082.00249226556	1164.511985080104	910.6416813366149	2458.563659697017	119.4933184768351	1052.143510007234	2426.079869900976	102.3343221091734	944.659546321187	1991.772302624903	1118.0048948984	1020.7379319508	2285.187408292511	270.6552614559482	944.2733739064023	2255.984390638545	273.9102939232434	986.0781128752706	2274.071355892031	348.7136363910082	925.2418612809137	2244.872885694378	356.3776675884872	969.1058142327129	2265.068768679161	713.2239023897743	890.0698665262144	2209.38199350159	682.4122007729626	925.4677811287822	2205.220657635596	803.4120541485605	873.3689324935983	2151.349171462805	773.8259732522821	905.878173355053	2182.130831101999	1059.221578647732	1170.770252505182	1612.871882757326	176.8954195266861	1088.330364565887	1489.834583567544	336.3445463279609	1061.758707518065	1504.360520143091	321.272129259721	1102.255517732616	1539.368180859975	344.2803877898428	1071.990413635994	2145.234891229058	1145.557084134479	1202.575737205331	1592.295328017734	136.5150996843877	1033.39626311683	1559.006439602124	154.885984094964	1138.303500889929	2007.268499956247	1118.244472560006	1132.790897316457	1635.618640846443	366.1663856783729	1153.153220012124	1612.267518377301	398.7695867187728	1114.812261034331	1683.888238981432	428.2809159988764	1174.443970188889	1660.42991789868	458.8817078537739	1136.730934330344	1942.920676369095	692.2868503286392	1217.224906182219	1889.922566523632	723.0266850381845	1178.451718629344	1983.354585246533	792.6776997540753	1240.269740672067	1932.488381994979	820.6570221265987	1204.170850704114	
2253	15.01333333333333	2155.545668143516	1076.255144199145	949.1513209383141	2249.596142192128	108.2991857339451	1025.066765228547	2278.484301460488	109.1186212574864	975.7368703807306	2260.177750443765	155.8956902750215	1012.66039323224	2081.954509810633	1164.390073123156	910.6083725479044	2473.884139459207	121.1817672166003	1053.914356059115	2442.71331708035	99.76902561231472	946.7831152455483	1992.213318525905	1119.681335693822	1021.615753456312	2295.00882688097	264.522943473479	943.3780614384049	2265.211379010406	266.7560626362662	984.7987727009463	2280.459476057546	341.9485442761175	923.8015009835574	2250.367494730186	348.5817989431279	967.2337966735724	2259.099725888808	709.3155628623202	889.0567509926083	2203.457156884473	680.0245300863281	925.662132554799	2200.832456342964	800.5067682393354	872.2528902706202	2147.004050230773	772.4516968724678	906.081450011421	2183.04031902513	1061.039698594384	1170.453952139669	1600.452942382595	190.7308508716301	1085.489604415162	1482.46968895802	354.3663877180348	1063.897164537836	1497.131679482198	338.0693676374112	1103.773649578789	1532.341710485403	360.342284843993	1073.2488881631	2146.064716217305	1148.214233613122	1201.621722518911	1577.617593355799	151.9818686336248	1030.264833848068	1546.716405668143	169.6539714480951	1136.085611564984	2008.274607077647	1120.881476759447	1133.625369207585	1631.033391251447	377.2905384318655	1152.493336845599	1608.581442747953	411.3664630956064	1114.900713916229	1682.388367269525	436.9446962334443	1173.537637174846	1659.829900355393	468.9687972325346	1136.567396209312	1947.682434971417	690.9220336322405	1215.979079246056	1894.241000052492	721.3434663226707	1177.519950454807	1987.334090766051	791.5745522858775	1239.245315622749	1935.919875429479	819.2676807654399	1203.687108026238	
2254	15.02	2155.160458638461	1075.646026068353	949.3150143516008	2262.942793746422	102.1174795644904	1025.951883337138	2292.081804262159	102.5894244768098	976.7624124447985	2272.102130021473	149.6898858626752	1012.419754654329	2081.988591529987	1163.538844077365	910.6372187149253	2486.529302250447	122.557705403738	1055.48640054246	2456.545390752967	97.01381901231365	948.8668955944351	1992.441323525839	1120.531253463212	1022.513555491224	2302.979882687486	258.9366918379257	942.7055329989381	2272.78930849841	260.232597911566	983.8756809609445	2285.348783706597	335.7015968763265	922.743681483416	2254.617607947831	341.385229417193	965.8885313741873	2253.031621297384	705.2020245937571	888.1620538132337	2197.552569819453	677.4114361810371	926.0787111676839	2196.272733064445	797.3105635341146	871.2548126988786	2142.602507036364	770.760489295915	906.4712625724839	2183.770906184342	1062.491564944037	1170.35447599479	1588.992443403183	205.1015921194287	1082.669289564172	1476.080456765709	372.4684369701891	1066.717314321786	1490.925838773379	354.8898111746903	1105.908132497643	1526.194138232087	376.5363289010718	1075.083510255474	2146.416190004515	1150.491978469476	1200.75894121743	1563.965439298703	168.1662328427034	1027.209743361805	1535.607758211691	184.7829558468025	1134.030925080194	2009.080228873949	1122.906825091523	1134.43083990121	1627.58979608307	388.4032673824732	1152.090152091995	1606.022524158587	424.0132082922383	1115.40306846185	1682.061859141742	445.3713286446662	1172.791001788234	1660.374768581169	478.8877559443708	1136.721215870778	1953.1934537612	688.5553529808109	1214.485656024117	1899.215320711611	718.6206859033297	1176.438368589521	1991.90468607064	789.5117753319867	1238.068937583593	1939.848790128285	816.8758927725587	1203.156899218239	
